<?xml version="1.0" standalone="no"?>
<!DOCTYPE svg PUBLIC "-//W3C//DTD SVG 20010904//EN"
 "http://www.w3.org/TR/2001/REC-SVG-20010904/DTD/svg10.dtd">
<svg version="1.0" xmlns="http://www.w3.org/2000/svg"
 width="700.000000pt" height="700.000000pt" viewBox="0 0 700.000000 700.000000"
 preserveAspectRatio="xMidYMid meet">
<metadata>
Created by potrace 1.14, written by Peter Selinger 2001-2017
</metadata>
<g transform="translate(0.000000,700.000000) scale(0.100000,-0.100000)"
fill="#000000" stroke="none">
<path d="M3290 5824 c-595 -72 -1074 -302 -1460 -700 -336 -346 -545 -760
-630 -1245 -27 -157 -37 -441 -21 -600 25 -245 108 -565 156 -606 38 -33 89
-31 126 6 33 34 37 66 14 132 -65 183 -104 398 -112 614 -32 897 497 1715
1332 2058 139 57 314 106 481 134 149 24 505 24 649 0 599 -104 1081 -404
1429 -892 65 -90 73 -97 124 -97 45 0 92 47 92 92 0 57 -173 282 -346 450
-345 336 -759 545 -1245 630 -95 17 -174 23 -339 25 -118 2 -231 1 -250 -1z"/>
<path d="M4024 4799 c-26 -13 -437 -663 -442 -701 -2 -15 -1 -39 2 -53 13 -52
31 -55 388 -76 458 -26 469 -25 502 7 47 48 30 128 -31 152 -15 6 -129 15
-253 22 -124 6 -253 13 -287 16 l-61 6 155 247 c86 135 160 259 165 274 12 33
-4 81 -36 102 -23 17 -71 18 -102 4z"/>
<path d="M5975 4449 c-168 -13 -370 -64 -550 -141 -85 -35 -103 -51 -111 -94
-20 -109 328 -548 539 -678 202 -126 397 -142 581 -49 70 36 167 136 206 212
42 84 64 188 56 268 -9 84 -39 178 -76 233 -128 192 -336 273 -645 249z m268
-205 c85 -22 126 -45 176 -99 60 -66 84 -124 85 -210 1 -123 -65 -229 -176
-285 -52 -26 -72 -30 -137 -30 -125 1 -237 59 -382 197 -115 110 -268 310
-254 332 11 19 242 85 365 104 70 11 266 6 323 -9z"/>
<path d="M2116 3839 c-46 -54 -25 -130 42 -148 20 -6 154 -20 297 -31 143 -12
270 -23 283 -26 21 -4 9 -24 -143 -248 -143 -212 -165 -249 -165 -283 0 -21 6
-45 13 -54 31 -40 97 -51 133 -21 34 27 454 659 454 682 0 34 -27 76 -57 88
-28 12 -682 72 -779 72 -46 0 -55 -4 -78 -31z"/>
<path d="M4981 3729 c-13 -5 -46 -30 -75 -55 -80 -72 -296 -232 -456 -337
-527 -345 -1229 -657 -1865 -828 -125 -34 -155 -46 -177 -70 -46 -48 -36 -94
47 -222 51 -79 78 -113 150 -189 389 -407 1010 -456 1670 -133 243 119 428
250 591 417 117 120 187 220 256 364 142 298 143 646 2 954 -29 63 -43 82 -69
94 -37 18 -41 18 -74 5z m28 -348 c12 -47 21 -94 21 -106 0 -48 -426 -347
-745 -522 -437 -240 -988 -466 -1431 -586 l-92 -25 -39 42 c-50 52 -107 126
-101 131 2 2 80 27 172 55 764 230 1530 610 2076 1029 58 44 108 77 111 73 4
-4 16 -45 28 -91z m-14 -499 c-102 -327 -368 -596 -798 -807 -153 -76 -330
-139 -477 -171 -66 -15 -127 -19 -270 -19 -205 0 -283 14 -418 76 l-67 30 165
53 c344 110 628 224 957 386 329 161 622 335 858 509 38 28 72 46 73 41 2 -6
-8 -50 -23 -98z"/>
<path d="M5652 3224 c-27 -25 -34 -43 -52 -129 -173 -852 -826 -1514 -1660
-1684 -169 -34 -292 -44 -504 -38 -330 8 -603 74 -889 213 -108 52 -138 55
-178 15 -33 -34 -39 -83 -13 -119 19 -28 143 -91 293 -149 446 -172 955 -203
1431 -87 153 38 286 87 445 164 555 269 987 765 1187 1363 46 139 88 315 88
374 0 53 -31 91 -81 99 -30 5 -41 2 -67 -22z"/>
<path d="M1759 2486 c-48 -17 -207 -117 -297 -188 -207 -162 -343 -333 -407
-508 -37 -101 -39 -234 -6 -330 104 -304 441 -438 725 -287 134 71 227 205
262 376 26 132 15 358 -25 519 -31 123 -86 283 -124 357 -30 60 -72 80 -128
61z m25 -321 c50 -155 67 -246 73 -385 8 -199 -22 -306 -108 -389 -66 -65
-120 -86 -219 -85 -102 0 -161 25 -227 97 -52 56 -69 88 -81 157 -24 130 39
274 189 434 98 106 323 277 339 259 4 -4 19 -44 34 -88z"/>
</g>
</svg>
